<?xml version="1.0" encoding="utf-8"?>
<!-- Generator: Adobe Illustrator 25.4.1, SVG Export Plug-In . SVG Version: 6.00 Build 0)  -->
<svg version="1.1" id="Layer_1" xmlns="http://www.w3.org/2000/svg" xmlns:xlink="http://www.w3.org/1999/xlink" x="0px" y="0px"
	 viewBox="0 0 640 640" style="enable-background:new 0 0 640 640;" xml:space="preserve">
<path d="M373,301.6c-16.4,0-29.4,14.4-29.4,32c0,17.6,13.2,32,29.4,32c16.4,0,29.4-14.4,29.4-32C402.4,316,389.4,301.6,373,301.6z
	 M267.9,301.6c-16.4,0-29.4,14.4-29.4,32c0,17.6,13.2,32,29.4,32c16.4,0,29.4-14.4,29.4-32C297.5,316,284.3,301.6,267.9,301.6z
	 M401.8,436.1c63.6-2,88.1-43.8,88.1-43.8c0-92.7-41.5-167.9-41.5-167.9c-41.5-31.1-80.9-30.2-80.9-30.2l-4,4.6
	c49,15,71.7,36.6,71.7,36.6c-29.9-16.4-59.3-24.5-86.7-27.6c-20.7-2.3-40.6-1.7-58.2,0.6c-1.7,0-3.2,0.3-4.9,0.6
	c-10.1,0.9-34.6,4.6-65.4,18.1c-10.7,4.9-17,8.4-17,8.4s23.9-22.8,75.7-37.7l-2.9-3.5c0,0-39.5-0.9-80.9,30.2
	c0,0-41.5,75.2-41.5,167.9c0,0,24.2,41.8,87.8,43.8c0,0,10.7-13,19.3-23.9c-36.6-10.9-50.4-34-50.4-34s2.9,2,8.1,4.9
	c0.3,0.3,0.6,0.6,1.2,0.9c0.4,0.2,0.8,0.5,1.1,0.6l0.3,0.1c0.4,0.2,0.7,0.4,1.1,0.6c7.2,4,14.4,7.2,21,9.8
	c11.8,4.6,25.9,9.2,42.3,12.4c21.6,4,46.9,5.5,74.6,0.3c13.5-2.3,27.4-6.3,41.8-12.4c10.1-3.7,21.3-9.2,33.1-17
	c0,0-14.4,23.6-52.1,34.3C391.4,423.7,401.8,436.1,401.8,436.1z M513,60c32.5,0,59,26.5,59,59.3V636l-61.9-54.7L475.2,549
	l-36.9-34.3l15.3,53.3H127c-32.5,0-59-26.5-59-59.3V119.3C68,86.5,94.5,60,127,60H513z"/>
</svg>
