<?xml version="1.0" encoding="utf-8"?>
<!-- Generator: Adobe Illustrator 25.4.1, SVG Export Plug-In . SVG Version: 6.00 Build 0)  -->
<svg version="1.1" id="Layer_1" xmlns="http://www.w3.org/2000/svg" xmlns:xlink="http://www.w3.org/1999/xlink" x="0px" y="0px"
	 viewBox="0 0 640 640" style="enable-background:new 0 0 640 640;" xml:space="preserve">
<path d="M623,132.05c-22.7,10.06-46.78,16.67-71.43,19.6c25.97-15.54,45.4-39.99,54.66-68.8c-24.39,14.5-51.09,24.7-78.93,30.15
	c-23.51-25.08-56.37-39.29-90.75-39.24c-80.27,0-139.25,74.87-121.12,152.64c-99.97-5.01-193.12-52.22-256.26-129.9
	c-32.98,56.82-16.14,129.49,38.48,166c-19.75-0.61-39.06-5.96-56.31-15.58C40,304.56,81.26,358.43,141.08,370.44
	c-18.32,4.96-37.52,5.69-56.16,2.12c16.28,50.65,62.96,85.35,116.15,86.34C148.95,499.76,82.75,518.27,17,510.37
	c56.84,36.54,122.99,55.93,190.56,55.86c230.84,0,361.25-194.93,353.4-369.82C585.29,178.81,606.3,157.02,623,132.05z"/>
</svg>
